<svg fill="none" xmlns="http://www.w3.org/2000/svg" viewBox="0 0 214 32"><path d="M120.774 22.953c.325 0 .606.119.842.355.237.238.355.519.355.845l-.508 6.267c0 .325-.118.607-.354.844a1.152 1.152 0 0 1-.843.356H92.242a1.15 1.15 0 0 1-.842-.356 1.155 1.155 0 0 1-.355-.844L94.43 1.709c0-.326.118-.608.355-.845a1.15 1.15 0 0 1 .842-.355h21.826c.326 0 .606.118.843.355.236.237.355.519.355.845v6.266c0 .326-.119.608-.355.845a1.15 1.15 0 0 1-.843.355h-14.879v2.8h14.81c.325 0 .606.119.843.356.236.237.354.518.354.844v5.778c0 .326-.118.607-.354.844a1.152 1.152 0 0 1-.843.356h-14.81v2.8h18.2ZM62.781 10.064h6.072V30.42c0 .325.119.607.355.844.237.237.517.356.843.356h9.134c.325 0 .606-.119.842-.356.237-.237.355-.518.355-.844V10.064h8.687c.325 0 .606-.118.843-.355.236-.238.354-.519.354-.845l.847-7.155c0-.326-.118-.608-.355-.845a1.15 1.15 0 0 0-.843-.355h-21.31L67.047 2.95l-4.267 7.113ZM28.258 15.397c1.153.356 2.143 1.141 2.97 2.356.828 1.185 1.242 2.548 1.242 4.089 0 3.289-1.064 5.748-3.192 7.378-2.129 1.6-5.233 2.4-9.312 2.4H1.697a1.15 1.15 0 0 1-.842-.356A1.155 1.155 0 0 1 .5 30.42V1.709c0-.326.118-.608.355-.845A1.15 1.15 0 0 1 1.697.51h17.825c4.198 0 7.287.77 9.268 2.31 2.01 1.512 3.015 3.808 3.015 6.89v.133c0 1.422-.384 2.637-1.153 3.644-.768 1.008-1.566 1.645-2.394 1.911Zm-8.47-5.289c0-.533-.162-.992-.487-1.377-.296-.385-.74-.578-1.33-.578h-5.942v4.044h5.942c.59 0 1.034-.207 1.33-.622.325-.444.488-.933.488-1.466Zm-1.33 13.867c.68 0 1.183-.222 1.508-.667a2.54 2.54 0 0 0 .532-1.555v-.044c0-.564-.192-1.052-.576-1.467-.355-.415-.843-.622-1.464-.622h-6.43v4.355h6.43ZM30.118.91c.135.094.267.191.396.29 2.464 1.86 3.66 4.586 3.8 7.851l6.88 11.458v9.91c0 .327.119.608.355.845.237.237.518.356.843.356h9.445c.325 0 .606-.119.842-.356.237-.237.355-.518.355-.844v-9.912L64.208 1.976c.089-.178.133-.355.133-.533 0-.237-.103-.445-.31-.622a.84.84 0 0 0-.666-.311h-9.267c-.798 0-1.419.37-1.862 1.11l-5.144 8.712-5.01-8.8c-.385-.682-.99-1.022-1.819-1.022h-9.356a.976.976 0 0 0-.71.31.97.97 0 0 0-.079.091ZM163.268 22.784c-1.745.089-3.548-.193-5.41-.845-1.833-.681-3.385-1.837-4.656-3.466-1.271-1.66-1.907-3.793-1.907-6.4 0-2.282.636-4.311 1.907-6.09 1.301-1.777 3.06-3.155 5.277-4.132C160.725.843 163.223.34 165.972.34c2.809 0 5.351.459 7.627 1.377 2.306.89 4.124 2.193 5.454 3.911 1.33 1.69 1.996 3.69 1.996 6 0 1.482-.296 2.993-.887 4.534-.562 1.51-1.715 3.289-3.459 5.333l-8.114 9.511a3.025 3.025 0 0 1-.71.667c-.266.148-.606.222-1.02.222h-9.311c-.267 0-.503-.089-.71-.267a1.065 1.065 0 0 1-.089-1.288l6.519-7.556Zm6.901-10.933c0-.919-.37-2.139-1.109-2.643-.709-.503-1.92-.755-2.955-.755-1.034 0-2.26.252-2.999.755-.709.504-1.064 1.724-1.064 2.643 0 .918.355 2.138 1.064 2.642.739.504 1.965.755 2.999.755 1.035 0 2.246-.251 2.955-.755.739-.504 1.109-1.724 1.109-2.642ZM142.834 16.03c0 3.42-2.766 6.192-6.178 6.192-3.411 0-6.177-2.772-6.177-6.192 0-3.42 2.766-6.192 6.177-6.192 3.412 0 6.178 2.773 6.178 6.192Z" fill="#000"/><path fill-rule="evenodd" clip-rule="evenodd" d="M209.376 28.978c2.749-2.015 4.124-4.993 4.124-8.934v-8.088c0-2.637-.665-4.845-1.995-6.623-1.331-1.807-3.119-3.14-5.366-4C203.922.444 201.424 0 198.646 0c-2.779 0-5.292.444-7.539 1.333-2.217.86-3.99 2.193-5.321 4-1.33 1.808-1.995 4.045-1.995 6.711v7.912c0 4 1.36 7.007 4.08 9.022C190.59 30.993 194.182 32 198.646 32c4.434 0 8.011-1.007 10.73-3.022Zm-15.15-7.583a3.111 3.111 0 0 1-.155-.995v-8.889c0-.8.266-1.481.798-2.044.562-.563 1.368-1.184 3.777-1.184.957 0 1.659.098 2.19.252l-6.61 12.86Zm2.398 2.002c.531.141 1.192.231 2.022.231 2.154 0 3.17-.62 3.732-1.184a2.79 2.79 0 0 0 .842-2.044v-8.889c0-.273-.03-.53-.091-.77l-6.505 12.656Z" fill="#000"/></svg>